<svg width="1356" height="490" viewBox="0 0 1356 490" fill="none" xmlns="http://www.w3.org/2000/svg">
<path d="M1210.2 476.61H1214.56V478.49H1210.2V483.432H1208.2V478.49H1203.84V476.61H1208.2V472.045H1210.2V476.61Z" fill="#E5E5E5"/>
<path d="M1245.2 441.61H1249.56V443.49H1245.2V448.432H1243.2V443.49H1238.84V441.61H1243.2V437.045H1245.2V441.61Z" fill="#E5E5E5"/>
<path d="M1280.2 336.61H1284.56V338.49H1280.2V343.432H1278.2V338.49H1273.84V336.61H1278.2V332.045H1280.2V336.61Z" fill="#E5E5E5"/>
<path d="M1280.2 371.61H1284.56V373.49H1280.2V378.432H1278.2V373.49H1273.84V371.61H1278.2V367.045H1280.2V371.61Z" fill="#E5E5E5"/>
<path d="M1280.2 406.61H1284.56V408.49H1280.2V413.432H1278.2V408.49H1273.84V406.61H1278.2V402.045H1280.2V406.61Z" fill="#6246E5"/>
<path d="M1280.2 441.61H1284.56V443.49H1280.2V448.432H1278.2V443.49H1273.84V441.61H1278.2V437.045H1280.2V441.61Z" fill="#E5E5E5"/>
<path d="M1280.2 476.61H1284.56V478.49H1280.2V483.432H1278.2V478.49H1273.84V476.61H1278.2V472.045H1280.2V476.61Z" fill="#E5E5E5"/>
<path d="M1315.2 336.61H1319.56V338.49H1315.2V343.432H1313.2V338.49H1308.84V336.61H1313.2V332.045H1315.2V336.61Z" fill="#E5E5E5"/>
<path d="M1315.2 371.61H1319.56V373.49H1315.2V378.432H1313.2V373.49H1308.84V371.61H1313.2V367.045H1315.2V371.61Z" fill="#E5E5E5"/>
<path d="M1315.2 406.61H1319.56V408.49H1315.2V413.432H1313.2V408.49H1308.84V406.61H1313.2V402.045H1315.2V406.61Z" fill="#E5E5E5"/>
<path d="M1315.2 441.61H1319.56V443.49H1315.2V448.432H1313.2V443.49H1308.84V441.61H1313.2V437.045H1315.2V441.61Z" fill="#E5E5E5"/>
<path d="M1315.2 476.61H1319.56V478.49H1315.2V483.432H1313.2V478.49H1308.84V476.61H1313.2V472.045H1315.2V476.61Z" fill="#E5E5E5"/>
<path d="M1350.2 336.61H1354.56V338.49H1350.2V343.432H1348.2V338.49H1343.84V336.61H1348.2V332.045H1350.2V336.61Z" fill="#FF7152"/>
<path d="M1350.2 371.61H1354.56V373.49H1350.2V378.432H1348.2V373.49H1343.84V371.61H1348.2V367.045H1350.2V371.61Z" fill="#E5E5E5"/>
<path d="M1350.2 406.61H1354.56V408.49H1350.2V413.432H1348.2V408.49H1343.84V406.61H1348.2V402.045H1350.2V406.61Z" fill="#E5E5E5"/>
<path d="M1350.2 441.61H1354.56V443.49H1350.2V448.432H1348.2V443.49H1343.84V441.61H1348.2V437.045H1350.2V441.61Z" fill="#E5E5E5"/>
<path d="M1350.2 476.61H1354.56V478.49H1350.2V483.432H1348.2V478.49H1343.84V476.61H1348.2V472.045H1350.2V476.61Z" fill="#E5E5E5"/>
<path opacity="0.2" d="M1257 33C1257 21.9543 1248.05 13 1237 13H216C144.755 13 87 70.7553 87 142V400C87 411.046 95.9543 420 107 420H1237C1248.05 420 1257 411.046 1257 400V33Z" fill="#DFD7F9"/>
<g opacity="0.1">
<mask id="mask0_252_4902" style="mask-type:alpha" maskUnits="userSpaceOnUse" x="993" y="13" width="264" height="352">
<path d="M993.5 13.5H1233C1245.98 13.5 1256.5 24.0213 1256.5 37V364.022H1043C1015.66 364.022 993.5 341.86 993.5 314.522V13.5Z" fill="url(#paint0_linear_252_4902)" stroke="#6246E5"/>
</mask>
<g mask="url(#mask0_252_4902)">
<circle cx="1232.01" cy="191.32" r="91.8033" stroke="#6246E5"/>
<circle cx="1224.73" cy="181.604" r="102.734" stroke="#6246E5"/>
<circle cx="1218.66" cy="173.71" r="112.45" stroke="#6246E5"/>
<circle cx="1212.58" cy="162.171" r="120.952" stroke="#6246E5"/>
<circle cx="1206.81" cy="150.937" r="129.15" stroke="#6246E5"/>
<circle cx="1197.1" cy="138.185" r="141.902" stroke="#6246E5"/>
</g>
</g>
<g opacity="0.1">
<mask id="mask1_252_4902" style="mask-type:alpha" maskUnits="userSpaceOnUse" x="0" y="59" width="480" height="361">
<rect x="479.5" y="59.5" width="360" height="479" transform="rotate(90 479.5 59.5)" fill="url(#paint1_linear_252_4902)" stroke="#6246E5"/>
</mask>
<g mask="url(#mask1_252_4902)">
<path d="M236.505 512.92C167.172 512.92 110.966 456.635 110.966 387.202C110.966 317.769 167.172 261.484 236.505 261.484C305.838 261.484 362.045 317.769 362.045 387.202C362.045 456.635 305.838 512.92 236.505 512.92Z" stroke="#6246E5"/>
<path d="M249.773 517.902C172.197 517.902 109.307 454.925 109.307 377.237C109.307 299.55 172.197 236.573 249.773 236.573C327.349 236.573 390.238 299.55 390.238 377.237C390.238 454.925 327.349 517.902 249.773 517.902Z" stroke="#6246E5"/>
<path d="M260.552 522.885C175.649 522.885 106.82 453.959 106.82 368.934C106.82 283.909 175.649 214.983 260.552 214.983C345.456 214.983 414.285 283.909 414.285 368.934C414.285 453.959 345.456 522.885 260.552 522.885Z" stroke="#6246E5"/>
<path d="M276.308 526.206C184.993 526.206 110.966 452.076 110.966 360.63C110.966 269.184 184.993 195.054 276.308 195.054C367.622 195.054 441.649 269.184 441.649 360.63C441.649 452.076 367.622 526.206 276.308 526.206Z" stroke="#6246E5"/>
<path d="M291.648 529.528C194.15 529.528 115.112 450.378 115.112 352.742C115.112 255.105 194.15 175.955 291.648 175.955C389.145 175.955 468.183 255.105 468.183 352.742C468.183 450.379 389.145 529.528 291.648 529.528Z" stroke="#6246E5"/>
<path d="M309.061 533.68C201.947 533.68 115.112 446.723 115.112 339.456C115.112 232.188 201.947 145.231 309.061 145.231C416.175 145.231 503.01 232.188 503.01 339.456C503.01 446.723 416.175 533.68 309.061 533.68Z" stroke="#6246E5"/>
</g>
</g>
<circle cx="1242" cy="35" r="35" fill="url(#paint2_linear_252_4902)"/>
<path d="M1259.61 23.9904C1260.3 25.1878 1260.21 26.6136 1259.37 27.711L1240.89 51.8182C1240.13 52.8123 1238.88 53.3191 1237.59 53.0729C1236.34 52.8313 1235.34 51.9156 1235 50.6841L1232.26 40.9555L1231.98 39.9435L1231.24 39.191L1224.19 31.9595C1223.29 31.0444 1223 29.724 1223.42 28.5154C1223.83 27.3206 1224.87 26.4536 1226.15 26.2856L1256.27 22.3404C1257.64 22.1604 1258.92 22.793 1259.61 23.9904Z" fill="white"/>
<path d="M1232.26 40.9555L1235 50.6841C1235.34 51.9157 1236.34 52.8313 1237.59 53.0729C1238.88 53.3192 1240.13 52.8124 1240.89 51.8182L1259.37 27.7111C1260.21 26.6137 1260.3 25.1879 1259.61 23.9905L1231.98 39.9436L1232.26 40.9555Z" fill="white"/>
<path d="M1243.22 33.4515C1243.5 33.9385 1243.34 34.5616 1242.85 34.8431L1232.26 40.9553L1231.98 39.9434L1231.24 39.1909L1241.83 33.0787C1242.32 32.7973 1242.94 32.9646 1243.22 33.4515Z" fill="url(#paint3_linear_252_4902)"/>
<path d="M1232.26 40.9554L1242.85 34.8432C1243.34 34.5617 1243.5 33.9387 1243.22 33.4517L1231.98 39.9435L1232.26 40.9554Z" fill="url(#paint4_linear_252_4902)"/>
<defs>
<linearGradient id="paint0_linear_252_4902" x1="1180.24" y1="22.8623" x2="998.232" y2="367.287" gradientUnits="userSpaceOnUse">
<stop stop-color="#747DEF"/>
<stop offset="1" stop-color="#5E3BE1"/>
</linearGradient>
<linearGradient id="paint1_linear_252_4902" x1="736.035" y1="72.4669" x2="487.704" y2="543.066" gradientUnits="userSpaceOnUse">
<stop stop-color="#747DEF"/>
<stop offset="1" stop-color="#5E3BE1"/>
</linearGradient>
<linearGradient id="paint2_linear_252_4902" x1="1256.65" y1="1.96393" x2="1226.56" y2="77.7643" gradientUnits="userSpaceOnUse">
<stop stop-color="#747DEF"/>
<stop offset="1" stop-color="#5E3BE1"/>
</linearGradient>
<linearGradient id="paint3_linear_252_4902" x1="1239.41" y1="34.5441" x2="1240.55" y2="36.8251" gradientUnits="userSpaceOnUse">
<stop stop-color="#747DEF"/>
<stop offset="1" stop-color="#5E3BE1"/>
</linearGradient>
<linearGradient id="paint4_linear_252_4902" x1="1239.9" y1="35.4017" x2="1240.51" y2="36.5259" gradientUnits="userSpaceOnUse">
<stop stop-color="#747DEF"/>
<stop offset="1" stop-color="#5E3BE1"/>
</linearGradient>
</defs>
</svg>
